PathFileType	4	(x/y/z)	S10_M20_T01
DataRate	CameraRate	NumFrames	NumMarkers	Units	OrigDataRate	OrigDataStartFrame	OrigNumFrames
240	240	10	51	mm	240	318	508
Frame#	Time	Sternum			R.Acromium			L.Acromium			Top.Head			R.ASIS			L.ASIS			R.PSIS			L.PSIS			R.Great.Tro			L.Great.Tro			R.Iliac.Crest			L.Iliac.Crest			V.Sacral			R.Thigh.Upper.Post			R.Thigh.Lower.Ant			R.Thigh.Lower.Post			R.Thigh.Upper.Ant			R.Knee.Lat			R.Knee.Med			R.Shank.Upper.Post			R.Shank.Lower.Ant			R.Shank.Lower.Post			R.Shank.Upper.Ant			R.Ankle.Lat			R.Ankle.Med			R.Heel.Upper			R.Heel.Med			R.Heel.Lat			R.Toe.Lat			R.Toe.Med			R.Toe.Tip			L.Thigh.Upper.Post			L.Thigh.Lower.Ant			L.Thigh.Lower.Post			L.Thigh.Upper.Ant			L.Knee.Lat			L.Knee.Med			L.Shank.Upper.Post			L.Shank.Lower.Ant			L.Shank.Lower.Post			L.Shank.Upper.Ant			L.Ankle.Lat			L.Ankle.Med			L.Heel.Upper			L.Heel.Med			L.Heel.Lat			L.Toe.Lat			L.Toe.Med			L.Toe.Tip			Cervical.Spine			Back			
		X1	Y1	Z1	X2	Y2	Z2	X3	Y3	Z3	X4	Y4	Z4	X5	Y5	Z5	X6	Y6	Z6	X7	Y7	Z7	X8	Y8	Z8	X9	Y9	Z9	X10	Y10	Z10	X11	Y11	Z11	X12	Y12	Z12	X13	Y13	Z13	X14	Y14	Z14	X15	Y15	Z15	X16	Y16	Z16	X17	Y17	Z17	X18	Y18	Z18	X19	Y19	Z19	X20	Y20	Z20	X21	Y21	Z21	X22	Y22	Z22	X23	Y23	Z23	X24	Y24	Z24	X25	Y25	Z25	X26	Y26	Z26	X27	Y27	Z27	X28	Y28	Z28	X29	Y29	Z29	X30	Y30	Z30	X31	Y31	Z31	X32	Y32	Z32	X33	Y33	Z33	X34	Y34	Z34	X35	Y35	Z35	X36	Y36	Z36	X37	Y37	Z37	X38	Y38	Z38	X39	Y39	Z39	X40	Y40	Z40	X41	Y41	Z41	X42	Y42	Z42	X43	Y43	Z43	X44	Y44	Z44	X45	Y45	Z45	X46	Y46	Z46	X47	Y47	Z47	X48	Y48	Z48	X49	Y49	Z49	X50	Y50	Z50	X51	Y51	Z51	

318	1.3208	125.01	1223.9	367.56	34.307	1389.4	524.32	-9.5626	1407.5	218.57	-20.955	1702.4	388.31	60.564	958.25	486.54	67.509	979.84	256.52	-137.35	986.02	391.42	-130.63	992.88	310.87	-30.591	889.94	558.44	11.133	917.67	192.14	-34.631	1043.3	528.39	-1.8543	1055.2	225.33	-155.7	955.21	353.54	-91.908	694.43	548.18	-67.157	601.95	511.28	-131.21	615.52	534.91	-24.217	682	523.02	-189.24	500.38	495.36	-184.69	505.48	367.93	-347.84	326.11	495.56	-314.95	240.94	477.85	-377.67	258.61	488.72	-277.07	308.14	485.35	-410.7	147.54	463.86	-392.7	150.55	386.19	-484.6	114.4	417.57	-481.88	85.947	390.46	-487.57	90.26	451.83	-326.22	39.373	501.26	-293.14	40.893	392.33	-234.71	44.578	436.14	70.716	645.98	192.39	169.84	599.55	213.05	107.73	559.73	213.32	139.82	683.4	192.54	177.66	498.28	222.99	191.41	498.34	352.79	212.71	278.09	223.38	312.89	231.15	232.55	251.59	210.63	231.43	274.74	297.53	224.48	343.48	112.09	240.37	352.71	130.95	324.87	299.04	62.673	287.91	323.79	40.26	322.89	317.56	36.692	258.5	478.9	97.701	216.48	498.95	123.33	319.79	539.71	159.07	271.41	-58.972	1455.4	392.28	-157.7	1252.8	385.62
319	1.325	131.2	1223.5	366.76	40.374	1389.1	523.44	-3.6168	1406.9	217.69	-15.492	1701.9	387.36	66.76	957.61	486	73.851	979.47	255.96	-131.08	985.55	390.76	-124.36	992.5	310.25	-24.603	889.27	557.78	17.624	917.47	191.58	-28.355	1042.7	527.8	4.4742	1054.8	224.72	-149.41	954.78	352.83	-86.344	694	547.6	-61.725	601.41	510.88	-125.79	615.15	534.38	-18.676	681.43	522.57	-184.08	500.1	495.03	-179.32	504.99	367.58	-344.21	327.3	495.52	-312.21	241.77	477.92	-374.8	260.1	488.88	-273.65	308.63	485.37	-408.96	149.31	464.18	-390.76	151.97	386.48	-482.99	116.96	417.8	-480.67	88.656	390.61	-486.39	92.77	451.99	-325.88	39.496	501.36	-292.75	40.901	392.49	-234.5	44.421	436.17	77.631	645.93	192.26	176.7	599.53	213.42	114.55	559.7	213.44	146.74	683.32	192.69	184.37	498.22	223.32	197.49	498.29	353.12	217.55	277.78	223.38	317.26	229.89	233.04	255.77	209.91	231.43	279.75	296.66	225.04	346.27	110.85	240.53	355.52	129.05	325.33	300.82	62.867	288.12	324.98	39.64	322.99	318.69	36.52	258.57	481.16	93.906	216.85	501.72	118.85	320.11	543.25	153.82	271.94	-53.036	1454.8	391.37	-151.54	1252.2	384.96
320	1.3292	137.43	1223.1	365.95	46.463	1388.7	522.54	2.362	1406.2	216.8	-10.023	1701.4	386.41	73.007	957	485.46	80.244	979.16	255.4	-124.75	985.12	390.09	-118.03	992.16	309.6	-18.548	888.61	557.11	24.19	917.35	191.01	-22.032	1042.2	527.2	10.864	1054.4	224.11	-143.06	954.38	352.09	-80.687	693.59	547	-56.187	600.88	510.46	-120.27	614.78	533.83	-13.043	680.88	522.11	-178.78	499.81	494.7	-173.84	504.5	367.21	-340.47	328.52	495.46	-309.35	242.62	478.01	-371.81	261.63	489.03	-270.12	309.14	485.4	-407.12	151.13	464.49	-388.73	153.44	386.79	-481.26	119.63	418.01	-479.36	91.471	390.76	-485.11	95.385	452.14	-325.52	39.629	501.45	-292.34	40.896	392.65	-234.31	44.277	436.19	84.516	645.95	192.14	183.52	599.54	213.78	121.31	559.71	213.55	153.64	683.29	192.85	191.01	498.19	223.62	203.47	498.26	353.44	222.4	277.53	223.38	321.63	228.71	233.51	259.97	209.28	231.42	284.76	295.87	225.58	349	109.69	240.68	358.33	127.26	325.79	302.58	63.207	288.34	326.1	39.165	323.09	319.73	36.495	258.63	483.31	90.11	217.16	504.44	114.35	320.36	546.75	148.49	272.38	-47.076	1454.3	390.43	-145.35	1251.6	384.29
321	1.3333	143.7	1222.8	365.12	52.573	1388.5	521.63	8.3741	1405.6	215.9	-4.5495	1700.9	385.45	79.304	956.43	484.92	86.685	978.91	254.84	-118.37	984.72	389.4	-111.64	991.87	308.91	-12.428	887.97	556.43	30.826	917.29	190.42	-15.664	1041.6	526.59	17.311	1054.1	223.49	-136.65	954.02	351.32	-74.936	693.19	546.39	-50.539	600.37	510.03	-114.64	614.41	533.25	-7.3162	680.35	521.62	-173.36	499.51	494.36	-168.23	504	366.83	-336.6	329.76	495.4	-306.38	243.51	478.11	-368.69	263.2	489.17	-266.48	309.68	485.43	-405.15	153	464.81	-386.59	154.95	387.11	-479.41	122.4	418.22	-477.93	94.394	390.9	-483.73	98.11	452.28	-325.15	39.775	501.54	-291.93	40.878	392.82	-234.12	44.143	436.2	91.372	646.04	192.03	190.3	599.58	214.12	128.02	559.78	213.66	160.53	683.3	193.01	197.6	498.22	223.89	209.33	498.24	353.75	227.26	277.37	223.38	326.01	227.63	233.95	264.19	208.74	231.41	289.77	295.16	226.11	351.69	108.62	240.81	361.14	125.57	326.23	304.33	63.673	288.57	327.16	38.829	323.18	320.72	36.602	258.7	485.37	86.338	217.41	507.1	109.86	320.54	550.18	143.12	272.73	-41.093	1453.9	389.48	-139.12	1251	383.6
322	1.3375	150.02	1222.6	364.27	58.704	1388.2	520.69	14.42	1405.1	214.98	0.92836	1700.5	384.49	85.649	955.89	484.38	93.169	978.73	254.27	-111.95	984.35	388.7	-105.2	991.63	308.19	-6.2434	887.34	555.75	37.525	917.32	189.82	-9.2515	1041.1	525.97	23.812	1053.9	222.88	-130.2	953.7	350.54	-69.089	692.8	545.76	-44.777	599.87	509.59	-108.9	614.04	532.66	-1.4919	679.84	521.13	-167.79	499.21	494.02	-162.5	503.5	366.44	-332.6	331.03	495.34	-303.28	244.43	478.23	-365.44	264.8	489.31	-262.72	310.25	485.47	-403.05	154.93	465.14	-384.34	156.51	387.46	-477.42	125.27	418.43	-476.38	97.427	391.03	-482.22	100.95	452.41	-324.75	39.934	501.63	-291.5	40.847	392.99	-233.93	44.018	436.2	98.2	646.2	191.92	197.04	599.67	214.44	134.67	559.9	213.74	167.4	683.36	193.17	204.14	498.29	224.12	215.1	498.25	354.04	232.12	277.28	223.38	330.39	226.64	234.37	268.42	208.29	231.4	294.78	294.53	226.61	354.34	107.64	240.92	363.94	123.98	326.66	306.05	64.247	288.81	328.18	38.622	323.28	321.65	36.828	258.76	487.33	82.613	217.6	509.69	105.4	320.65	553.53	137.74	272.98	-35.087	1453.5	388.52	-132.85	1250.5	382.91
323	1.3417	156.38	1222.4	363.42	64.855	1388.1	519.75	20.498	1404.6	214.06	6.4099	1700.1	383.53	92.039	955.39	483.83	99.692	978.62	253.71	-105.48	984.03	387.98	-98.709	991.44	307.44	0.0042433	886.73	555.06	44.283	917.43	189.2	-2.7965	1040.7	525.35	30.362	1053.8	222.27	-123.69	953.42	349.73	-63.144	692.42	545.11	-38.898	599.38	509.15	-103.04	613.67	532.06	4.432	679.34	520.61	-162.08	498.89	493.68	-156.64	502.98	366.05	-328.45	332.32	495.26	-300.05	245.38	478.36	-362.04	266.44	489.44	-258.84	310.85	485.51	-400.81	156.9	465.47	-381.97	158.09	387.82	-475.29	128.25	418.62	-474.7	100.57	391.16	-480.59	103.9	452.53	-324.33	40.108	501.72	-291.06	40.805	393.16	-233.75	43.901	436.2	105	646.44	191.81	203.75	599.8	214.73	141.28	560.09	213.81	174.25	683.48	193.33	210.64	498.42	224.33	220.76	498.29	354.32	236.99	277.28	223.37	334.76	225.74	234.77	272.65	207.93	231.39	299.78	293.98	227.08	356.92	106.73	241.03	366.72	122.51	327.06	307.76	64.907	289.04	329.15	38.533	323.37	322.55	37.155	258.82	489.18	78.96	217.74	512.2	100.99	320.7	556.78	132.37	273.15	-29.061	1453.1	387.54	-126.56	1250	382.21
324	1.3458	162.78	1222.3	362.55	71.025	1387.9	518.79	26.609	1404.1	213.12	11.894	1699.8	382.57	98.471	954.92	483.27	106.25	978.57	253.14	-98.982	983.75	387.25	-92.181	991.31	306.66	6.313	886.13	554.36	51.09	917.62	188.57	3.6999	1040.3	524.73	36.954	1053.7	221.66	-117.15	953.18	348.91	-57.098	692.05	544.46	-32.897	598.9	508.7	-97.068	613.3	531.44	10.458	678.87	520.08	-156.22	498.56	493.34	-150.64	502.45	365.65	-324.17	333.63	495.18	-296.68	246.36	478.5	-358.49	268.11	489.56	-254.83	311.47	485.55	-398.43	158.92	465.81	-379.47	159.72	388.19	-472.99	131.33	418.81	-472.89	103.83	391.28	-478.83	106.97	452.65	-323.89	40.3	501.81	-290.61	40.754	393.33	-233.56	43.789	436.2	111.79	646.75	191.69	210.44	599.99	215	147.86	560.34	213.84	181.09	683.66	193.49	217.12	498.61	224.5	226.34	498.37	354.57	241.86	277.37	223.36	339.11	224.92	235.14	276.87	207.67	231.36	304.78	293.5	227.52	359.44	105.91	241.12	369.46	121.14	327.44	309.44	65.63	289.27	330.08	38.548	323.46	323.4	37.566	258.88	490.94	75.402	217.83	514.63	96.68	320.71	559.92	127.07	273.24	-23.015	1452.8	386.55	-120.24	1249.5	381.51
325	1.35	169.23	1222.2	361.68	77.213	1387.8	517.82	32.75	1403.7	212.17	17.38	1699.5	381.62	104.94	954.5	482.72	112.83	978.6	252.58	-92.446	983.51	386.52	-85.625	991.25	305.87	12.681	885.56	553.66	57.939	917.9	187.93	10.236	1039.9	524.1	43.581	1053.7	221.06	-110.56	952.99	348.08	-50.951	691.69	543.79	-26.77	598.43	508.24	-90.972	612.93	530.82	16.589	678.41	519.53	-150.2	498.21	493	-144.5	501.91	365.26	-319.73	334.95	495.09	-293.17	247.37	478.66	-354.78	269.8	489.68	-250.68	312.11	485.61	-395.89	160.99	466.15	-376.83	161.38	388.59	-470.52	134.52	418.99	-470.92	107.2	391.4	-476.91	110.17	452.75	-323.42	40.512	501.9	-290.16	40.696	393.5	-233.38	43.681	436.18	118.57	647.14	191.56	217.12	600.25	215.24	154.42	560.67	213.85	187.92	683.92	193.64	223.59	498.86	224.65	231.85	498.5	354.81	246.72	277.54	223.35	343.43	224.17	235.49	281.07	207.51	231.33	309.76	293.1	227.92	361.89	105.15	241.21	372.16	119.88	327.78	311.08	66.397	289.5	330.97	38.654	323.54	324.22	38.045	258.94	492.59	71.96	217.88	516.95	92.479	320.68	562.93	121.85	273.27	-16.951	1452.5	385.55	-113.89	1249.1	380.8
326	1.3542	175.7	1222.2	360.79	83.417	1387.8	516.84	38.92	1403.3	211.22	22.867	1699.3	380.66	111.45	954.12	482.15	119.43	978.7	252.02	-85.881	983.31	385.78	-79.049	991.24	305.07	19.106	885	552.95	64.82	918.27	187.27	16.812	1039.5	523.47	50.235	1053.8	220.46	-103.95	952.85	347.24	-44.701	691.33	543.11	-20.512	597.98	507.78	-84.75	612.55	530.19	22.827	677.97	518.97	-144.02	497.84	492.68	-138.2	501.34	364.87	-315.14	336.3	495	-289.5	248.4	478.84	-350.91	271.53	489.8	-246.39	312.78	485.67	-393.2	163.1	466.5	-374.05	163.07	389	-467.87	137.81	419.17	-468.78	110.68	391.5	-474.83	113.49	452.85	-322.92	40.748	501.98	-289.69	40.635	393.66	-233.19	43.573	436.16	125.34	647.61	191.4	223.79	600.59	215.44	160.98	561.07	213.81	194.75	684.26	193.77	230.07	499.19	224.77	237.3	498.69	355.01	251.56	277.8	223.32	347.7	223.5	235.83	285.22	207.43	231.29	314.72	292.77	228.3	364.26	104.47	241.29	374.79	118.73	328.1	312.68	67.19	289.72	331.83	38.836	323.61	325.02	38.574	259	494.15	68.656	217.9	519.16	88.417	320.63	565.81	116.76	273.25	-10.873	1452.3	384.54	-107.53	1248.7	380.09
327	1.3583	182.21	1222.2	359.9	89.637	1387.8	515.84	45.114	1403	210.27	28.354	1699.1	379.71	117.99	953.77	481.58	126.05	978.87	251.46	-79.294	983.16	385.05	-72.462	991.31	304.27	25.585	884.46	552.24	71.723	918.73	186.6	23.424	1039.2	522.83	56.908	1054	219.87	-97.31	952.76	346.4	-38.346	690.98	542.42	-14.12	597.53	507.32	-78.397	612.15	529.56	29.175	677.55	518.39	-137.68	497.44	492.38	-131.75	500.74	364.49	-310.38	337.66	494.9	-285.68	249.45	479.03	-346.87	273.28	489.9	-241.94	313.45	485.75	-390.33	165.25	466.85	-371.11	164.79	389.43	-465.02	141.22	419.35	-466.48	114.28	391.6	-472.57	116.94	452.94	-322.38	41.012	502.06	-289.21	40.576	393.83	-233	43.463	436.13	132.12	648.16	191.21	230.47	601.01	215.62	167.54	561.54	213.74	201.58	684.68	193.9	236.56	499.59	224.88	242.72	498.96	355.19	256.37	278.15	223.27	351.91	222.89	236.15	289.32	207.45	231.24	319.64	292.5	228.64	366.54	103.85	241.36	377.36	117.68	328.4	314.21	67.991	289.92	332.64	39.08	323.69	325.77	39.14	259.05	495.6	65.507	217.89	521.26	84.513	320.55	568.52	111.82	273.18	-4.7836	1452.1	383.52	-101.15	1248.4	379.38
